<?xml version="1.0" encoding="UTF-8"?>
<svg xmlns="http://www.w3.org/2000/svg" viewBox="0 0 1440 900" width="1440" height="900" font-family="Inter, system-ui, sans-serif">
  <title>medcrm — Dashboard</title>
  <rect width="1440" height="900" fill="#FFFFFF"/>

  <!-- ─────── SIDEBAR ─────── -->
  <defs>
    <linearGradient id="side" x1="0" y1="0" x2="0" y2="1">
      <stop offset="0" stop-color="#FAFAFA"/>
      <stop offset="1" stop-color="#F4F4F5"/>
    </linearGradient>
  </defs>
  <rect x="0" y="0" width="260" height="900" fill="url(#side)"/>
  <line x1="260" y1="0" x2="260" y2="900" stroke="#E4E4E7"/>

  <!-- Brand -->
  <rect x="20" y="20" width="36" height="36" rx="9" fill="#3B82F6"/>
  <text x="38" y="43" font-size="15" font-weight="700" fill="#FFFFFF" text-anchor="middle">M</text>
  <text x="68" y="36" font-size="14" font-weight="700" fill="#0F172A">Medstocksy</text>
  <text x="68" y="51" font-size="11" fill="#71717A">Customer Relations</text>
  <line x1="20" y1="76" x2="240" y2="76" stroke="#E4E4E7"/>

  <!-- Section labels -->
  <text x="20" y="104" font-size="11" font-weight="600" fill="#A1A1AA" letter-spacing="1">INVENTORY</text>
  <g font-size="14" font-weight="500" fill="#52525B">
    <text x="48" y="136">Overview</text>
    <text x="48" y="166">Products</text>
    <text x="48" y="196">Sales</text>
    <text x="48" y="226">Suppliers</text>
    <text x="48" y="256">Reports</text>
  </g>
  <g fill="#A1A1AA" font-size="14">
    <text x="20" y="136">⌂</text>
    <text x="20" y="166">📦</text>
    <text x="20" y="196">🛒</text>
    <text x="20" y="226">🚚</text>
    <text x="20" y="256">📊</text>
  </g>

  <text x="20" y="296" font-size="11" font-weight="600" fill="#A1A1AA" letter-spacing="1">CUSTOMER RELATIONS</text>
  <!-- active item with colored bar -->
  <rect x="14" y="312" width="232" height="40" rx="10" fill="#EFF6FF"/>
  <rect x="14" y="312" width="3" height="40" rx="2" fill="#3B82F6"/>
  <text x="48" y="338" font-size="14" font-weight="600" fill="#1D4ED8">Dashboard</text>
  <text x="20" y="338" font-size="14">📊</text>

  <g font-size="14" font-weight="500" fill="#52525B">
    <text x="48" y="378">Customers</text>
    <text x="48" y="408">Segments</text>
    <text x="48" y="438">Campaigns</text>
    <text x="48" y="468">Reminders</text>
    <text x="48" y="498">Templates</text>
    <text x="48" y="528">Activity</text>
  </g>
  <g font-size="14" fill="#A1A1AA">
    <text x="20" y="378">👥</text>
    <text x="20" y="408">🎯</text>
    <text x="20" y="438">📣</text>
    <text x="20" y="468">🔔</text>
    <text x="20" y="498">📝</text>
    <text x="20" y="528">⏱</text>
  </g>

  <!-- Profile -->
  <rect x="14" y="820" width="232" height="62" rx="12" fill="#FFFFFF" stroke="#E4E4E7"/>
  <circle cx="38" cy="851" r="16" fill="#DBEAFE"/>
  <text x="38" y="856" font-size="11" font-weight="700" fill="#1D4ED8" text-anchor="middle">RS</text>
  <text x="62" y="848" font-size="13" font-weight="600" fill="#0F172A">Rajesh Singh</text>
  <text x="62" y="864" font-size="11" fill="#71717A">Owner · Sec 14</text>

  <!-- ─────── HEADER ─────── -->
  <g id="header">
    <text x="296" y="56" font-size="13" fill="#71717A">Customer Relations · Dashboard</text>
    <text x="296" y="92" font-size="32" font-weight="700" fill="#0F172A" letter-spacing="-0.5">Good afternoon, Rajesh</text>
    <text x="296" y="118" font-size="14" fill="#71717A">347 customers · 38% repeat rate · 23 reminders queued</text>

    <!-- Search -->
    <rect x="940" y="68" width="320" height="44" rx="22" fill="#F4F4F5"/>
    <text x="960" y="94" font-size="13" fill="#A1A1AA">🔍   Search customers, campaigns…</text>

    <!-- Send CTA -->
    <rect x="1276" y="68" width="140" height="44" rx="22" fill="#3B82F6"/>
    <text x="1346" y="94" font-size="13" font-weight="600" fill="#FFFFFF" text-anchor="middle">+ New campaign</text>
  </g>

  <!-- ─────── KPI ROW (4 minimal tiles, no shadow) ─────── -->
  <g id="kpis">
    <rect x="296" y="156" width="270" height="120" rx="16" fill="#FAFAFA"/>
    <text x="320" y="184" font-size="11" font-weight="600" fill="#71717A" letter-spacing="1">REPEAT RATE</text>
    <text x="320" y="226" font-size="36" font-weight="700" fill="#0F172A">38%</text>
    <text x="320" y="252" font-size="12" fill="#10B981">↑ 3 pts vs last month</text>

    <rect x="586" y="156" width="270" height="120" rx="16" fill="#FAFAFA"/>
    <text x="610" y="184" font-size="11" font-weight="600" fill="#71717A" letter-spacing="1">MESSAGES TODAY</text>
    <text x="610" y="226" font-size="36" font-weight="700" fill="#0F172A">42</text>
    <text x="610" y="252" font-size="12" fill="#71717A">15 manual · 27 auto</text>

    <rect x="876" y="156" width="270" height="120" rx="16" fill="#FAFAFA"/>
    <text x="900" y="184" font-size="11" font-weight="600" fill="#71717A" letter-spacing="1">UPCOMING REMINDERS</text>
    <text x="900" y="226" font-size="36" font-weight="700" fill="#0F172A">23</text>
    <text x="900" y="252" font-size="12" fill="#71717A">Next 7 days</text>

    <rect x="1166" y="156" width="250" height="120" rx="16" fill="#0F172A"/>
    <text x="1190" y="184" font-size="11" font-weight="600" fill="#71717A" letter-spacing="1">DELIVERY RATE</text>
    <text x="1190" y="226" font-size="36" font-weight="700" fill="#FFFFFF">98<tspan font-size="22" fill="#A1A1AA">%</tspan></text>
    <text x="1190" y="252" font-size="12" fill="#10B981">1 failed · within target</text>
  </g>

  <!-- ─────── RECENT CONVERSATIONS / REMINDERS ─────── -->
  <g id="upcoming">
    <text x="296" y="320" font-size="14" font-weight="600" fill="#0F172A">Upcoming reminders</text>
    <text x="850" y="320" font-size="13" font-weight="500" fill="#3B82F6" text-anchor="end">View all (23) →</text>
    <rect x="296" y="332" width="554" height="486" rx="16" fill="#FFFFFF" stroke="#E4E4E7"/>

    <!-- Row 1 -->
    <g>
      <rect x="316" y="352" width="514" height="68" rx="10" fill="#FAFAFA"/>
      <circle cx="346" cy="386" r="20" fill="#FEF3C7"/>
      <text x="346" y="392" font-size="14" text-anchor="middle">🔔</text>
      <text x="376" y="380" font-size="14" font-weight="600" fill="#0F172A">Ramesh Singh</text>
      <text x="376" y="400" font-size="12" fill="#71717A">Amlodipine refill · BP medicine</text>
      <text x="816" y="380" font-size="12" font-weight="600" fill="#0F172A" text-anchor="end">Tomorrow · 9:00 AM</text>
      <text x="816" y="400" font-size="11" fill="#71717A" text-anchor="end">Auto · Template T2</text>
    </g>
    <!-- Row 2 -->
    <g>
      <rect x="316" y="432" width="514" height="68" rx="10" fill="#FAFAFA"/>
      <circle cx="346" cy="466" r="20" fill="#FEF3C7"/>
      <text x="346" y="472" font-size="14" text-anchor="middle">🔔</text>
      <text x="376" y="460" font-size="14" font-weight="600" fill="#0F172A">Priya Sharma</text>
      <text x="376" y="480" font-size="12" fill="#71717A">Vitamin D3 refill · Vitamins</text>
      <text x="816" y="460" font-size="12" font-weight="600" fill="#0F172A" text-anchor="end">May 8 · 9:00 AM</text>
      <text x="816" y="480" font-size="11" fill="#71717A" text-anchor="end">Auto · Template T2</text>
    </g>
    <!-- Row 3 -->
    <g>
      <rect x="316" y="512" width="514" height="68" rx="10" fill="#FAFAFA"/>
      <circle cx="346" cy="546" r="20" fill="#FEF3C7"/>
      <text x="346" y="552" font-size="14" text-anchor="middle">🔔</text>
      <text x="376" y="540" font-size="14" font-weight="600" fill="#0F172A">Amit Patel</text>
      <text x="376" y="560" font-size="12" fill="#71717A">Metformin refill · Diabetes</text>
      <text x="816" y="540" font-size="12" font-weight="600" fill="#0F172A" text-anchor="end">May 9 · 9:00 AM</text>
      <text x="816" y="560" font-size="11" fill="#71717A" text-anchor="end">Auto · Template T2</text>
    </g>
    <!-- Row 4 (Batch) -->
    <g>
      <rect x="316" y="592" width="514" height="68" rx="10" fill="#FFFFFF" stroke="#DBEAFE"/>
      <circle cx="346" cy="626" r="20" fill="#DBEAFE"/>
      <text x="346" y="632" font-size="14" text-anchor="middle">📣</text>
      <text x="376" y="620" font-size="14" font-weight="600" fill="#0F172A">Win-back batch · Inactive</text>
      <text x="376" y="640" font-size="12" fill="#71717A">47 customers · "We miss you" template</text>
      <text x="816" y="620" font-size="12" font-weight="600" fill="#0F172A" text-anchor="end">May 10 · 10:00 AM</text>
      <text x="816" y="640" font-size="11" fill="#71717A" text-anchor="end">Manual approval needed</text>
    </g>
    <!-- Row 5 -->
    <g>
      <rect x="316" y="672" width="514" height="68" rx="10" fill="#FAFAFA"/>
      <circle cx="346" cy="706" r="20" fill="#FEF3C7"/>
      <text x="346" y="712" font-size="14" text-anchor="middle">🔔</text>
      <text x="376" y="700" font-size="14" font-weight="600" fill="#0F172A">Divya Nair</text>
      <text x="376" y="720" font-size="12" fill="#71717A">Atorvastatin refill · Cardio</text>
      <text x="816" y="700" font-size="12" font-weight="600" fill="#0F172A" text-anchor="end">May 11 · 9:00 AM</text>
      <text x="816" y="720" font-size="11" fill="#71717A" text-anchor="end">Auto · Template T2</text>
    </g>
    <!-- Row 6 -->
    <g>
      <rect x="316" y="752" width="514" height="48" rx="10" fill="#FFFFFF" stroke="#E4E4E7" stroke-dasharray="2,3"/>
      <text x="573" y="781" font-size="13" fill="#71717A" text-anchor="middle">+ 18 more in next 7 days</text>
    </g>
  </g>

  <!-- ─────── WHATSAPP HEALTH (right rail) ─────── -->
  <g id="health">
    <text x="876" y="320" font-size="14" font-weight="600" fill="#0F172A">WhatsApp health</text>
    <text x="1416" y="320" font-size="11" fill="#71717A" text-anchor="end">Live · 1 hour</text>
    <rect x="876" y="332" width="540" height="218" rx="16" fill="#FFFFFF" stroke="#E4E4E7"/>

    <!-- rate -->
    <text x="900" y="368" font-size="13" font-weight="500" fill="#0F172A">Rate this hour</text>
    <text x="1392" y="368" font-size="13" font-weight="600" fill="#F59E0B" text-anchor="end">8 / 10</text>
    <rect x="900" y="376" width="492" height="6" rx="3" fill="#F4F4F5"/>
    <rect x="900" y="376" width="394" height="6" rx="3" fill="#F59E0B"/>
    <text x="900" y="402" font-size="11" fill="#71717A">Approaching cap. Sends queue automatically.</text>

    <line x1="900" y1="420" x2="1392" y2="420" stroke="#E4E4E7"/>

    <!-- bounce -->
    <text x="900" y="450" font-size="13" font-weight="500" fill="#0F172A">Bounce rate · 24h</text>
    <text x="1392" y="450" font-size="13" font-weight="600" fill="#10B981" text-anchor="end">2.1%</text>
    <rect x="900" y="458" width="492" height="6" rx="3" fill="#F4F4F5"/>
    <rect x="900" y="458" width="103" height="6" rx="3" fill="#10B981"/>

    <!-- opt-out -->
    <text x="900" y="498" font-size="13" font-weight="500" fill="#0F172A">Opt-outs · 30d</text>
    <text x="1392" y="498" font-size="13" font-weight="600" fill="#10B981" text-anchor="end">1.4%</text>
    <rect x="900" y="506" width="492" height="6" rx="3" fill="#F4F4F5"/>
    <rect x="900" y="506" width="69" height="6" rx="3" fill="#10B981"/>

    <text x="1392" y="536" font-size="11" fill="#71717A" text-anchor="end">Window: 9 AM – 8 PM IST</text>
  </g>

  <!-- ─────── SEGMENTS QUICK ACCESS ─────── -->
  <g id="segments">
    <text x="876" y="592" font-size="14" font-weight="600" fill="#0F172A">Segments</text>
    <text x="1416" y="592" font-size="11" font-weight="500" fill="#3B82F6" text-anchor="end">Manage →</text>

    <rect x="876" y="604" width="260" height="100" rx="16" fill="#FFFFFF" stroke="#E4E4E7"/>
    <text x="900" y="632" font-size="11" font-weight="600" fill="#3B82F6" letter-spacing="1">REPEAT</text>
    <text x="900" y="668" font-size="28" font-weight="700" fill="#0F172A">132</text>
    <text x="900" y="688" font-size="11" fill="#71717A">+12 this month</text>

    <rect x="1156" y="604" width="260" height="100" rx="16" fill="#FFFFFF" stroke="#E4E4E7"/>
    <text x="1180" y="632" font-size="11" font-weight="600" fill="#D97706" letter-spacing="1">HIGH VALUE</text>
    <text x="1180" y="668" font-size="28" font-weight="700" fill="#0F172A">41</text>
    <text x="1180" y="688" font-size="11" fill="#71717A">LTV &gt; ₹10K</text>

    <rect x="876" y="720" width="260" height="100" rx="16" fill="#FFFFFF" stroke="#E4E4E7"/>
    <text x="900" y="748" font-size="11" font-weight="600" fill="#71717A" letter-spacing="1">INACTIVE</text>
    <text x="900" y="784" font-size="28" font-weight="700" fill="#0F172A">62</text>
    <text x="900" y="804" font-size="11" fill="#71717A">30+ days no visit</text>

    <rect x="1156" y="720" width="260" height="100" rx="16" fill="#FFFFFF" stroke="#E4E4E7"/>
    <text x="1180" y="748" font-size="11" font-weight="600" fill="#5B21B6" letter-spacing="1">CHRONIC</text>
    <text x="1180" y="784" font-size="28" font-weight="700" fill="#0F172A">38</text>
    <text x="1180" y="804" font-size="11" fill="#71717A">Long-term meds</text>
  </g>

  <text x="296" y="876" font-family="JetBrains Mono, monospace" font-size="11" fill="#A1A1AA">01 / medcrm · Dashboard · 1440 × 900</text>
</svg>
