<?xml version="1.0" encoding="UTF-8"?>
<svg xmlns="http://www.w3.org/2000/svg" viewBox="0 0 1440 900" width="1440" height="900" font-family="Inter, system-ui, sans-serif">
  <title>medcrm — Customers</title>
  <rect width="1440" height="900" fill="#FFFFFF"/>

  <defs>
    <linearGradient id="side" x1="0" y1="0" x2="0" y2="1">
      <stop offset="0" stop-color="#FAFAFA"/>
      <stop offset="1" stop-color="#F4F4F5"/>
    </linearGradient>
  </defs>
  <rect x="0" y="0" width="260" height="900" fill="url(#side)"/>
  <line x1="260" y1="0" x2="260" y2="900" stroke="#E4E4E7"/>
  <rect x="20" y="20" width="36" height="36" rx="9" fill="#3B82F6"/>
  <text x="38" y="43" font-size="15" font-weight="700" fill="#FFFFFF" text-anchor="middle">M</text>
  <text x="68" y="36" font-size="14" font-weight="700" fill="#0F172A">Medstocksy</text>
  <text x="68" y="51" font-size="11" fill="#71717A">Customer Relations</text>
  <line x1="20" y1="76" x2="240" y2="76" stroke="#E4E4E7"/>

  <g font-size="14" font-weight="500" fill="#52525B">
    <text x="20" y="104" font-size="11" font-weight="600" fill="#A1A1AA" letter-spacing="1">INVENTORY</text>
    <text x="48" y="136">Overview</text>
    <text x="48" y="166">Products</text>
    <text x="48" y="196">Sales</text>
    <text x="48" y="226">Reports</text>

    <text x="20" y="266" font-size="11" font-weight="600" fill="#A1A1AA" letter-spacing="1">CUSTOMER RELATIONS</text>
    <text x="48" y="298">Dashboard</text>
  </g>
  <rect x="14" y="312" width="232" height="40" rx="10" fill="#EFF6FF"/>
  <rect x="14" y="312" width="3" height="40" rx="2" fill="#3B82F6"/>
  <text x="48" y="338" font-size="14" font-weight="600" fill="#1D4ED8">Customers</text>

  <g font-size="14" font-weight="500" fill="#52525B">
    <text x="48" y="378">Segments</text>
    <text x="48" y="408">Campaigns</text>
    <text x="48" y="438">Reminders</text>
    <text x="48" y="468">Templates</text>
    <text x="48" y="498">Activity</text>
  </g>

  <!-- ─────── HEADER ─────── -->
  <text x="296" y="56" font-size="13" fill="#71717A">Customer Relations / Customers</text>
  <text x="296" y="92" font-size="32" font-weight="700" fill="#0F172A" letter-spacing="-0.5">Customers</text>
  <text x="296" y="118" font-size="14" fill="#71717A">347 total · 132 repeat · 41 high-value · 62 inactive</text>

  <rect x="1188" y="68" width="106" height="44" rx="22" fill="#FFFFFF" stroke="#E4E4E7"/>
  <text x="1241" y="94" font-size="13" font-weight="500" fill="#0F172A" text-anchor="middle">⬇ Export</text>
  <rect x="1306" y="68" width="110" height="44" rx="22" fill="#3B82F6"/>
  <text x="1361" y="94" font-size="13" font-weight="600" fill="#FFFFFF" text-anchor="middle">+ Add</text>

  <!-- ─────── SEGMENT CHIPS (minimal pill row) ─────── -->
  <g id="chips">
    <rect x="296" y="156" width="78" height="40" rx="20" fill="#0F172A"/>
    <text x="335" y="181" font-size="13" font-weight="600" fill="#FFFFFF" text-anchor="middle">All · 347</text>

    <rect x="384" y="156" width="80" height="40" rx="20" fill="#FFFFFF" stroke="#E4E4E7"/>
    <text x="424" y="181" font-size="13" font-weight="500" fill="#52525B" text-anchor="middle">New · 28</text>

    <rect x="474" y="156" width="106" height="40" rx="20" fill="#FFFFFF" stroke="#E4E4E7"/>
    <text x="527" y="181" font-size="13" font-weight="500" fill="#52525B" text-anchor="middle">Repeat · 132</text>

    <rect x="590" y="156" width="106" height="40" rx="20" fill="#FFFFFF" stroke="#E4E4E7"/>
    <text x="643" y="181" font-size="13" font-weight="500" fill="#52525B" text-anchor="middle">Inactive · 62</text>

    <rect x="706" y="156" width="124" height="40" rx="20" fill="#FFFFFF" stroke="#E4E4E7"/>
    <text x="768" y="181" font-size="13" font-weight="500" fill="#52525B" text-anchor="middle">High Value · 41</text>

    <rect x="840" y="156" width="106" height="40" rx="20" fill="#FFFFFF" stroke="#E4E4E7"/>
    <text x="893" y="181" font-size="13" font-weight="500" fill="#52525B" text-anchor="middle">Chronic · 38</text>

    <rect x="956" y="156" width="92" height="40" rx="20" fill="#FFFFFF" stroke="#E4E4E7"/>
    <text x="1002" y="181" font-size="13" font-weight="500" fill="#52525B" text-anchor="middle">OptOut · 6</text>
  </g>

  <!-- ─────── SEARCH ─────── -->
  <rect x="296" y="216" width="1120" height="48" rx="12" fill="#FAFAFA"/>
  <text x="316" y="246" font-size="14" fill="#A1A1AA">🔍   Search by name, phone, or medicine…</text>
  <text x="1396" y="246" font-size="12" font-weight="500" fill="#52525B" text-anchor="end">Sort: Recent ▾</text>

  <!-- ─────── TABLE ─────── -->
  <rect x="296" y="288" width="1120" height="540" rx="16" fill="#FFFFFF" stroke="#E4E4E7"/>

  <g font-size="11" font-weight="600" fill="#A1A1AA" letter-spacing="1">
    <text x="316" y="322">CUSTOMER</text>
    <text x="600" y="322">PHONE</text>
    <text x="800" y="322">LAST VISIT</text>
    <text x="940" y="322">LTV</text>
    <text x="1060" y="322">VISITS</text>
    <text x="1156" y="322">TAGS</text>
  </g>
  <line x1="316" y1="336" x2="1396" y2="336" stroke="#E4E4E7"/>

  <!-- Row 1 -->
  <g font-size="14">
    <circle cx="332" cy="368" r="18" fill="#DBEAFE"/>
    <text x="332" y="373" font-size="11" font-weight="700" fill="#1D4ED8" text-anchor="middle">RS</text>
    <text x="358" y="364" fill="#0F172A" font-weight="600">Ramesh Singh</text>
    <text x="358" y="382" font-size="12" fill="#A1A1AA">45 · Male</text>
    <text x="600" y="372" font-family="JetBrains Mono, monospace" fill="#52525B" font-size="13">+91 98765 43210</text>
    <text x="800" y="372" fill="#0F172A">2 days ago</text>
    <text x="940" y="372" font-family="JetBrains Mono, monospace" fill="#0F172A" font-weight="600">₹15,420</text>
    <text x="1080" y="372" font-family="JetBrains Mono, monospace" fill="#52525B" text-anchor="middle">12</text>
    <rect x="1156" y="356" width="60" height="22" rx="4" fill="#D1FAE5"/>
    <text x="1186" y="371" font-size="11" font-weight="600" fill="#047857" text-anchor="middle">Repeat</text>
    <rect x="1222" y="356" width="74" height="22" rx="4" fill="#FEF3C7"/>
    <text x="1259" y="371" font-size="11" font-weight="600" fill="#92400E" text-anchor="middle">High Value</text>
    <rect x="1302" y="356" width="64" height="22" rx="4" fill="#EDE9FE"/>
    <text x="1334" y="371" font-size="11" font-weight="600" fill="#5B21B6" text-anchor="middle">Chronic</text>
  </g>
  <line x1="316" y1="402" x2="1396" y2="402" stroke="#F4F4F5"/>

  <!-- Row 2 -->
  <g font-size="14">
    <circle cx="332" cy="434" r="18" fill="#FEF3C7"/>
    <text x="332" y="439" font-size="11" font-weight="700" fill="#92400E" text-anchor="middle">PS</text>
    <text x="358" y="430" fill="#0F172A" font-weight="600">Priya Sharma</text>
    <text x="358" y="448" font-size="12" fill="#A1A1AA">32 · Female</text>
    <text x="600" y="438" font-family="JetBrains Mono, monospace" fill="#52525B" font-size="13">+91 91234 56789</text>
    <text x="800" y="438" fill="#0F172A">Today</text>
    <text x="940" y="438" font-family="JetBrains Mono, monospace" fill="#0F172A" font-weight="600">₹7,240</text>
    <text x="1080" y="438" font-family="JetBrains Mono, monospace" fill="#52525B" text-anchor="middle">8</text>
    <rect x="1156" y="422" width="60" height="22" rx="4" fill="#D1FAE5"/>
    <text x="1186" y="437" font-size="11" font-weight="600" fill="#047857" text-anchor="middle">Repeat</text>
  </g>
  <line x1="316" y1="468" x2="1396" y2="468" stroke="#F4F4F5"/>

  <!-- Row 3 -->
  <g font-size="14">
    <circle cx="332" cy="500" r="18" fill="#FEE2E2"/>
    <text x="332" y="505" font-size="11" font-weight="700" fill="#991B1B" text-anchor="middle">AP</text>
    <text x="358" y="496" fill="#0F172A" font-weight="600">Amit Patel</text>
    <text x="358" y="514" font-size="12" fill="#A1A1AA">58 · Male</text>
    <text x="600" y="504" font-family="JetBrains Mono, monospace" fill="#52525B" font-size="13">+91 99887 76655</text>
    <text x="800" y="504" fill="#0F172A">5 days ago</text>
    <text x="940" y="504" font-family="JetBrains Mono, monospace" fill="#0F172A" font-weight="600">₹28,910</text>
    <text x="1080" y="504" font-family="JetBrains Mono, monospace" fill="#52525B" text-anchor="middle">24</text>
    <rect x="1156" y="488" width="60" height="22" rx="4" fill="#D1FAE5"/>
    <text x="1186" y="503" font-size="11" font-weight="600" fill="#047857" text-anchor="middle">Repeat</text>
    <rect x="1222" y="488" width="74" height="22" rx="4" fill="#FEF3C7"/>
    <text x="1259" y="503" font-size="11" font-weight="600" fill="#92400E" text-anchor="middle">High Value</text>
    <rect x="1302" y="488" width="64" height="22" rx="4" fill="#EDE9FE"/>
    <text x="1334" y="503" font-size="11" font-weight="600" fill="#5B21B6" text-anchor="middle">Chronic</text>
  </g>
  <line x1="316" y1="534" x2="1396" y2="534" stroke="#F4F4F5"/>

  <!-- Row 4 -->
  <g font-size="14">
    <circle cx="332" cy="566" r="18" fill="#DBEAFE"/>
    <text x="332" y="571" font-size="11" font-weight="700" fill="#1D4ED8" text-anchor="middle">SV</text>
    <text x="358" y="562" fill="#0F172A" font-weight="600">Sunita Verma</text>
    <text x="358" y="580" font-size="12" fill="#A1A1AA">29 · Female</text>
    <text x="600" y="570" font-family="JetBrains Mono, monospace" fill="#52525B" font-size="13">+91 90909 12345</text>
    <text x="800" y="570" fill="#0F172A">3 hours ago</text>
    <text x="940" y="570" font-family="JetBrains Mono, monospace" fill="#0F172A" font-weight="600">₹890</text>
    <text x="1080" y="570" font-family="JetBrains Mono, monospace" fill="#52525B" text-anchor="middle">1</text>
    <rect x="1156" y="554" width="46" height="22" rx="4" fill="#DBEAFE"/>
    <text x="1179" y="569" font-size="11" font-weight="600" fill="#1D4ED8" text-anchor="middle">New</text>
  </g>
  <line x1="316" y1="600" x2="1396" y2="600" stroke="#F4F4F5"/>

  <!-- Row 5 -->
  <g font-size="14">
    <circle cx="332" cy="632" r="18" fill="#F4F4F5"/>
    <text x="332" y="637" font-size="11" font-weight="700" fill="#52525B" text-anchor="middle">KM</text>
    <text x="358" y="628" fill="#0F172A" font-weight="600">Karan Mehta</text>
    <text x="358" y="646" font-size="12" fill="#A1A1AA">41 · Male</text>
    <text x="600" y="636" font-family="JetBrains Mono, monospace" fill="#52525B" font-size="13">+91 98123 45678</text>
    <text x="800" y="636" fill="#71717A">45 days ago</text>
    <text x="940" y="636" font-family="JetBrains Mono, monospace" fill="#0F172A" font-weight="600">₹4,120</text>
    <text x="1080" y="636" font-family="JetBrains Mono, monospace" fill="#52525B" text-anchor="middle">5</text>
    <rect x="1156" y="620" width="68" height="22" rx="4" fill="#F4F4F5"/>
    <text x="1190" y="635" font-size="11" font-weight="600" fill="#52525B" text-anchor="middle">Inactive</text>
  </g>
  <line x1="316" y1="666" x2="1396" y2="666" stroke="#F4F4F5"/>

  <!-- Row 6 -->
  <g font-size="14">
    <circle cx="332" cy="698" r="18" fill="#FEF3C7"/>
    <text x="332" y="703" font-size="11" font-weight="700" fill="#92400E" text-anchor="middle">DN</text>
    <text x="358" y="694" fill="#0F172A" font-weight="600">Divya Nair</text>
    <text x="358" y="712" font-size="12" fill="#A1A1AA">36 · Female</text>
    <text x="600" y="702" font-family="JetBrains Mono, monospace" fill="#52525B" font-size="13">+91 96677 88990</text>
    <text x="800" y="702" fill="#0F172A">7 days ago</text>
    <text x="940" y="702" font-family="JetBrains Mono, monospace" fill="#0F172A" font-weight="600">₹12,560</text>
    <text x="1080" y="702" font-family="JetBrains Mono, monospace" fill="#52525B" text-anchor="middle">11</text>
    <rect x="1156" y="686" width="60" height="22" rx="4" fill="#D1FAE5"/>
    <text x="1186" y="701" font-size="11" font-weight="600" fill="#047857" text-anchor="middle">Repeat</text>
    <rect x="1222" y="686" width="74" height="22" rx="4" fill="#FEF3C7"/>
    <text x="1259" y="701" font-size="11" font-weight="600" fill="#92400E" text-anchor="middle">High Value</text>
  </g>
  <line x1="316" y1="732" x2="1396" y2="732" stroke="#F4F4F5"/>

  <!-- Row 7 -->
  <g font-size="14">
    <circle cx="332" cy="764" r="18" fill="#FEE2E2"/>
    <text x="332" y="769" font-size="11" font-weight="700" fill="#991B1B" text-anchor="middle">RK</text>
    <text x="358" y="760" fill="#0F172A" font-weight="600">Rohit Kumar</text>
    <text x="358" y="778" font-size="12" fill="#A1A1AA">52 · Male</text>
    <text x="600" y="768" font-family="JetBrains Mono, monospace" fill="#52525B" font-size="13">+91 95544 33221</text>
    <text x="800" y="768" fill="#71717A">62 days ago</text>
    <text x="940" y="768" font-family="JetBrains Mono, monospace" fill="#0F172A" font-weight="600">₹2,340</text>
    <text x="1080" y="768" font-family="JetBrains Mono, monospace" fill="#52525B" text-anchor="middle">3</text>
    <rect x="1156" y="752" width="64" height="22" rx="4" fill="#FEE2E2"/>
    <text x="1188" y="767" font-size="11" font-weight="600" fill="#991B1B" text-anchor="middle">OptOut</text>
  </g>

  <line x1="316" y1="798" x2="1396" y2="798" stroke="#E4E4E7"/>
  <text x="316" y="820" font-size="12" fill="#71717A">Showing 1–7 of 347</text>
  <g font-size="12" fill="#52525B">
    <text x="1340" y="820">‹ Prev</text>
    <text x="1396" y="820" text-anchor="end">Next ›</text>
  </g>

  <text x="296" y="876" font-family="JetBrains Mono, monospace" font-size="11" fill="#A1A1AA">02 / medcrm · Customers · 1440 × 900</text>
</svg>
