<?xml version="1.0" encoding="UTF-8"?>
<svg xmlns="http://www.w3.org/2000/svg" viewBox="0 0 1280 1600" width="1280" height="1600" font-family="Inter, sans-serif">
  <title>My Portfolio — Redesign Wireframe</title>

  <!-- ─────── BACKGROUND ─────── -->
  <rect width="1280" height="1600" fill="#FFFFFF"/>

  <!-- ─────── TOP NAV ─────── -->
  <g id="nav">
    <rect x="0" y="0" width="1280" height="72" fill="#FFFFFF"/>
    <line x1="0" y1="72" x2="1280" y2="72" stroke="#E2E8F0" stroke-width="1"/>
    <rect x="60" y="22" width="32" height="28" rx="6" fill="#2563EB"/>
    <text x="76" y="41" font-size="14" font-weight="700" fill="#FFFFFF" text-anchor="middle">V</text>
    <text x="104" y="42" font-size="15" font-weight="600" fill="#0F172A">Vaibhav Singh</text>
    <g font-size="14" font-weight="500" fill="#475569">
      <text x="900" y="42">Work</text>
      <text x="960" y="42">About</text>
      <text x="1018" y="42">Writing</text>
      <text x="1086" y="42">Contact</text>
    </g>
    <rect x="1160" y="22" width="62" height="28" rx="14" fill="#0F172A"/>
    <text x="1191" y="41" font-size="13" font-weight="500" fill="#FFFFFF" text-anchor="middle">Resume</text>
  </g>

  <!-- ─────── HERO ─────── -->
  <g id="hero">
    <rect x="60" y="120" width="800" height="32" rx="6" fill="#DBEAFE"/>
    <text x="80" y="142" font-size="13" font-weight="500" fill="#1E40AF">● Available for full-time roles · May 2026</text>

    <text x="60" y="220" font-size="56" font-weight="700" fill="#0F172A">Hi, I'm Vaibhav.</text>
    <text x="60" y="282" font-size="56" font-weight="700" fill="#2563EB">I build the web,</text>
    <text x="60" y="344" font-size="56" font-weight="700" fill="#0F172A">end to end.</text>

    <text x="60" y="406" font-size="18" fill="#475569">Full-Stack Developer specialising in React, TypeScript, and Supabase. Currently shipping</text>
    <text x="60" y="432" font-size="18" fill="#475569">Medstocksy — a real-time pharmacy SaaS used by retail pharmacies in India.</text>

    <!-- CTAs -->
    <rect x="60" y="468" width="166" height="48" rx="10" fill="#2563EB"/>
    <text x="143" y="498" font-size="15" font-weight="500" fill="#FFFFFF" text-anchor="middle">View my work →</text>
    <rect x="240" y="468" width="166" height="48" rx="10" fill="#FFFFFF" stroke="#CBD5E1"/>
    <text x="323" y="498" font-size="15" font-weight="500" fill="#0F172A" text-anchor="middle">Get in touch</text>

    <!-- right side: avatar / illustration placeholder -->
    <rect x="940" y="180" width="280" height="280" rx="140" fill="#F1F5F9"/>
    <circle cx="1080" cy="280" r="50" fill="#CBD5E1"/>
    <rect x="1010" y="350" width="140" height="60" rx="30" fill="#CBD5E1"/>
  </g>

  <!-- ─────── FEATURED WORK SECTION ─────── -->
  <g id="featured-work">
    <text x="60" y="640" font-size="13" font-weight="600" fill="#475569" letter-spacing="1">FEATURED WORK</text>
    <text x="60" y="684" font-size="34" font-weight="600" fill="#0F172A">Things I've shipped</text>

    <!-- Project Card 1 -->
    <g id="card-1">
      <rect x="60" y="724" width="368" height="380" rx="14" fill="#F8FAFC" stroke="#E2E8F0"/>
      <rect x="80" y="744" width="328" height="180" rx="10" fill="#DBEAFE"/>
      <text x="244" y="840" font-size="13" font-weight="500" fill="#1E40AF" text-anchor="middle">[Medstocksy dashboard]</text>
      <rect x="80" y="940" width="50" height="22" rx="11" fill="#D1FAE5"/>
      <text x="105" y="956" font-size="11" font-weight="500" fill="#047857" text-anchor="middle">LIVE</text>
      <text x="80" y="990" font-size="20" font-weight="600" fill="#0F172A">Medstocksy</text>
      <text x="80" y="1018" font-size="14" fill="#475569">Pharmacy inventory + sales SaaS.</text>
      <text x="80" y="1038" font-size="14" fill="#475569">Real-time, multi-tenant, RLS auth.</text>
      <text x="80" y="1078" font-size="12" fill="#94A3B8">React · TypeScript · Supabase · Vercel</text>
    </g>

    <!-- Project Card 2 -->
    <g id="card-2">
      <rect x="456" y="724" width="368" height="380" rx="14" fill="#F8FAFC" stroke="#E2E8F0"/>
      <rect x="476" y="744" width="328" height="180" rx="10" fill="#FEF3C7"/>
      <text x="640" y="840" font-size="13" font-weight="500" fill="#92400E" text-anchor="middle">[Connect — wireframes]</text>
      <rect x="476" y="940" width="84" height="22" rx="11" fill="#DBEAFE"/>
      <text x="518" y="956" font-size="11" font-weight="500" fill="#1E40AF" text-anchor="middle">CASE STUDY</text>
      <text x="476" y="990" font-size="20" font-weight="600" fill="#0F172A">Medstocksy Connect</text>
      <text x="476" y="1018" font-size="14" fill="#475569">CRM module — PRD, design system,</text>
      <text x="476" y="1038" font-size="14" fill="#475569">9 interactive wireframes.</text>
      <text x="476" y="1078" font-size="12" fill="#94A3B8">Product Design · Wireframing</text>
    </g>

    <!-- Project Card 3 -->
    <g id="card-3">
      <rect x="852" y="724" width="368" height="380" rx="14" fill="#F8FAFC" stroke="#E2E8F0"/>
      <rect x="872" y="744" width="328" height="180" rx="10" fill="#EDE9FE"/>
      <text x="1036" y="840" font-size="13" font-weight="500" fill="#5B21B6" text-anchor="middle">[EVA chatbot UI]</text>
      <rect x="872" y="940" width="40" height="22" rx="11" fill="#EDE9FE"/>
      <text x="892" y="956" font-size="11" font-weight="500" fill="#5B21B6" text-anchor="middle">AI</text>
      <text x="872" y="990" font-size="20" font-weight="600" fill="#0F172A">EVA Chatbot</text>
      <text x="872" y="1018" font-size="14" fill="#475569">LLM chatbot via Groq + LLaMA 3.1.</text>
      <text x="872" y="1038" font-size="14" fill="#475569">Sub-second response, session memory.</text>
      <text x="872" y="1078" font-size="12" fill="#94A3B8">Python · Flask · Groq API</text>
    </g>
  </g>

  <!-- ─────── SKILLS STRIP ─────── -->
  <g id="skills">
    <text x="60" y="1196" font-size="13" font-weight="600" fill="#475569" letter-spacing="1">TOOLBOX</text>
    <text x="60" y="1240" font-size="34" font-weight="600" fill="#0F172A">What I work with</text>

    <g id="skills-pills" font-size="13" font-weight="500" font-family="JetBrains Mono, monospace">
      <rect x="60"  y="1280" width="92" height="36" rx="18" fill="#EFF6FF"/><text x="106" y="1303" fill="#1E40AF" text-anchor="middle">React</text>
      <rect x="160" y="1280" width="120" height="36" rx="18" fill="#EFF6FF"/><text x="220" y="1303" fill="#1E40AF" text-anchor="middle">TypeScript</text>
      <rect x="288" y="1280" width="100" height="36" rx="18" fill="#EFF6FF"/><text x="338" y="1303" fill="#1E40AF" text-anchor="middle">Tailwind</text>
      <rect x="396" y="1280" width="92" height="36" rx="18" fill="#EFF6FF"/><text x="442" y="1303" fill="#1E40AF" text-anchor="middle">Python</text>
      <rect x="496" y="1280" width="84" height="36" rx="18" fill="#EFF6FF"/><text x="538" y="1303" fill="#1E40AF" text-anchor="middle">Flask</text>
      <rect x="588" y="1280" width="110" height="36" rx="18" fill="#EFF6FF"/><text x="643" y="1303" fill="#1E40AF" text-anchor="middle">Supabase</text>
      <rect x="706" y="1280" width="120" height="36" rx="18" fill="#EFF6FF"/><text x="766" y="1303" fill="#1E40AF" text-anchor="middle">PostgreSQL</text>
      <rect x="834" y="1280" width="80" height="36" rx="18" fill="#EFF6FF"/><text x="874" y="1303" fill="#1E40AF" text-anchor="middle">Node</text>
      <rect x="60"  y="1328" width="120" height="36" rx="18" fill="#EFF6FF"/><text x="120" y="1351" fill="#1E40AF" text-anchor="middle">shadcn/ui</text>
      <rect x="188" y="1328" width="100" height="36" rx="18" fill="#EFF6FF"/><text x="238" y="1351" fill="#1E40AF" text-anchor="middle">OpenCV</text>
      <rect x="296" y="1328" width="80" height="36" rx="18" fill="#EFF6FF"/><text x="336" y="1351" fill="#1E40AF" text-anchor="middle">Groq</text>
      <rect x="384" y="1328" width="100" height="36" rx="18" fill="#EFF6FF"/><text x="434" y="1351" fill="#1E40AF" text-anchor="middle">LLaMA 3.1</text>
      <rect x="492" y="1328" width="84" height="36" rx="18" fill="#EFF6FF"/><text x="534" y="1351" fill="#1E40AF" text-anchor="middle">Vercel</text>
      <rect x="584" y="1328" width="84" height="36" rx="18" fill="#EFF6FF"/><text x="626" y="1351" fill="#1E40AF" text-anchor="middle">Figma</text>
      <rect x="676" y="1328" width="92" height="36" rx="18" fill="#EFF6FF"/><text x="722" y="1351" fill="#1E40AF" text-anchor="middle">GitHub</text>
    </g>
  </g>

  <!-- ─────── FOOTER ─────── -->
  <g id="footer">
    <line x1="60" y1="1448" x2="1220" y2="1448" stroke="#E2E8F0"/>
    <text x="60" y="1490" font-size="13" fill="#94A3B8">© 2026 Vaibhav Singh · Lucknow, India</text>
    <g font-size="13" font-weight="500" fill="#475569">
      <text x="940" y="1490">GitHub</text>
      <text x="1010" y="1490">LinkedIn</text>
      <text x="1090" y="1490">Email</text>
      <text x="1160" y="1490">CV</text>
    </g>
  </g>

  <!-- ─────── ANNOTATION ─────── -->
  <g id="annotation" font-family="JetBrains Mono, monospace" font-size="11" fill="#94A3B8">
    <text x="60" y="1560">01 / Portfolio · vaibhav1.me redesign · 1280 × 1600</text>
  </g>
</svg>
